<svg width="224" height="235" viewBox="0 0 224 235" fill="none" xmlns="http://www.w3.org/2000/svg">
<path d="M152.544 80.2674L152.51 80.2459L152.467 80.2214L152.249 80.0977L151.424 79.6285C150.714 79.2246 149.7 78.6482 148.486 77.9583C146.059 76.5789 142.833 74.7459 139.634 72.9315C136.96 71.4216 135.458 68.4627 135.748 65.4038L135.749 65.3987C136.049 62.3388 138.131 59.752 141.061 58.792C147.719 56.6111 154.984 57.1598 161.23 60.3603C167.468 63.5565 172.209 69.0861 174.383 75.7677L175.392 78.8685C176.386 81.9247 175.368 85.2614 172.825 87.2333C170.285 89.2035 166.82 89.3635 164.109 87.6479L164.102 87.6432C161.101 85.7199 158.196 83.8657 156.04 82.4922C154.962 81.8054 154.072 81.2389 153.451 80.8441L152.732 80.3872L152.544 80.2674Z" fill="white" stroke="white" stroke-width="3"/>
<path d="M97.4207 46.872L97.4206 46.8719C85.6915 39.4126 71.7874 39.4918 60.8512 44.5856C49.9072 49.683 41.3452 60.1427 41.3452 73.7347V159.705C41.3452 173.298 49.9085 183.752 60.8524 188.847C71.7465 193.918 85.5847 194.015 97.2847 186.654L168.617 146.492L168.652 146.472L168.685 146.451L168.779 146.392C189.25 133.396 189.253 105.667 168.788 92.6665L168.786 92.6654L168.785 92.6645L168.779 92.6607L97.4401 46.8843L97.435 46.8811L97.4207 46.872Z" fill="white" stroke="white" stroke-width="3" stroke-miterlimit="2.2041"/>
<path fill-rule="evenodd" clip-rule="evenodd" d="M61.4845 45.9453C72.0019 41.0466 85.3591 40.9789 96.6157 48.1376L96.63 48.1467L167.975 93.927C167.978 93.9289 167.981 93.9308 167.984 93.9326C187.521 106.344 187.518 132.718 167.975 145.125L167.881 145.184L96.5165 185.365C85.2812 192.449 71.9721 192.368 61.4854 187.487C50.9614 182.588 42.8452 172.603 42.8452 159.705V73.7347C42.8452 60.8371 50.9604 50.8472 61.4845 45.9453ZM65.01 53.5671C56.8336 57.3755 51.2189 64.732 51.2189 73.7347V159.705C51.2189 168.707 56.8327 176.058 65.0091 179.864C73.193 183.674 83.5088 183.68 92.1358 178.203L92.2293 178.144L163.588 137.967C177.848 128.835 177.819 110.119 163.498 101.028L163.481 101.017L92.1331 55.2351L92.1261 55.2306C83.5016 49.7493 73.191 49.7566 65.01 53.5671Z" fill="#2F2F2F"/>
<path fill-rule="evenodd" clip-rule="evenodd" d="M84.3776 97C92.1871 97 98.4979 103.354 98.4979 111.169C98.4979 125.021 87.3328 136.226 73.529 136.204H44.9927V97H84.3776ZM80.5685 121.497C76.0226 122.122 71.8352 118.933 71.2122 114.372C70.5893 109.81 73.7673 105.608 78.3132 104.983C82.8591 104.357 87.0466 107.547 87.6696 112.109C88.2925 116.67 85.1144 120.872 80.5685 121.497Z" fill="#2F2F2F"/>
<path fill-rule="evenodd" clip-rule="evenodd" d="M138.311 97C130.522 97 124.211 103.354 124.211 111.169C124.211 125.021 135.377 136.226 149.139 136.204H170.329C172.63 136.204 174.825 135.294 176.451 133.663C178.076 132.053 178.983 129.85 178.983 127.542V110.958C178.983 107.272 177.527 103.714 174.91 101.088C172.314 98.4613 168.767 97 165.074 97H138.311ZM140.116 120.808C144.662 121.433 148.85 118.245 149.473 113.683C150.099 109.093 146.921 104.89 142.371 104.294C137.826 103.669 133.638 106.858 133.015 111.42C132.392 115.982 135.57 120.183 140.116 120.808Z" fill="#2F2F2F"/>
<path fill-rule="evenodd" clip-rule="evenodd" d="M140.373 71.6245C138.225 70.4122 137.005 68.0267 137.241 65.5433C137.483 63.08 139.158 60.994 141.525 60.2184C147.805 58.1611 154.657 58.6794 160.546 61.6967C166.434 64.7139 170.907 69.9326 172.957 76.2347L173.966 79.3355C174.765 81.7919 173.947 84.4659 171.908 86.0473C169.87 87.6287 167.092 87.7587 164.911 86.3788C158.908 82.5303 153.284 78.9586 153.284 78.9586C153.284 78.9586 146.772 75.2544 140.373 71.6245Z" fill="#2F2F2F"/>
<path fill-rule="evenodd" clip-rule="evenodd" d="M89.3607 71.6366C91.5157 70.4041 92.7556 68.0251 92.4999 65.5351C92.2442 63.0451 90.5693 60.9593 88.2017 60.1838C81.9214 58.1264 75.11 58.6578 69.2281 61.6549C63.3463 64.652 58.8931 69.8771 56.8495 76.1591L55.8276 79.3002C55.0285 81.7566 55.8461 84.4306 57.885 86.012C59.9239 87.5934 62.7013 87.7234 64.882 86.3434C70.8854 82.4949 76.5101 78.9236 76.5101 78.9236C76.5101 78.9236 82.9822 75.2731 89.3607 71.6366Z" fill="#2F2F2F"/>
<path fill-rule="evenodd" clip-rule="evenodd" d="M116.389 134.581C116.389 133.74 116.054 132.941 115.475 132.349C114.882 131.758 114.084 131.426 113.247 131.426C111.199 131.426 108.52 131.426 106.472 131.426C105.635 131.426 104.837 131.758 104.244 132.349C103.652 132.941 103.33 133.74 103.33 134.581C103.33 135.411 103.665 136.221 104.244 136.813C104.837 137.404 105.635 137.736 106.472 137.736C108.52 137.736 111.199 137.736 113.247 137.736C114.084 137.736 114.882 137.404 115.475 136.813C116.054 136.221 116.389 135.422 116.389 134.581Z" fill="#2F2F2F" stroke="#2F2F2F" stroke-width="0.410115" stroke-miterlimit="1.5" stroke-linecap="round" stroke-linejoin="round"/>
<path fill-rule="evenodd" clip-rule="evenodd" d="M92.23 144.46C92.23 144.46 94.1982 146.756 97.2956 148.12C99.1841 148.952 101.452 149.443 103.94 149.042C107.088 148.531 109.356 147.107 110.945 145.242C112.653 143.227 113.562 140.64 113.692 137.912C113.792 135.797 112.163 133.992 110.055 133.892C107.947 133.791 106.148 135.426 106.048 137.552C105.998 138.544 105.749 139.527 105.119 140.259C104.59 140.88 103.78 141.281 102.731 141.452C101.852 141.592 101.053 141.382 100.383 141.081C98.9444 140.449 98.005 139.406 98.005 139.406C96.6162 137.812 94.1982 137.642 92.5995 139.036C91.0009 140.429 90.8411 142.865 92.23 144.46Z" fill="#2F2F2F"/>
<path fill-rule="evenodd" clip-rule="evenodd" d="M121.731 139.406C121.731 139.406 120.802 140.449 119.353 141.081C118.684 141.372 117.885 141.592 117.005 141.452C115.956 141.281 115.147 140.88 114.617 140.258C113.988 139.517 113.738 138.544 113.688 137.552C113.588 135.436 111.79 133.791 109.681 133.892C107.573 133.992 105.945 135.797 106.045 137.912C106.175 140.64 107.074 143.227 108.792 145.242C110.371 147.107 112.649 148.531 115.796 149.042C118.284 149.443 120.552 148.952 122.441 148.12C125.548 146.756 127.507 144.46 127.507 144.46C128.896 142.865 128.736 140.429 127.137 139.036C125.538 137.642 123.12 137.812 121.731 139.406Z" fill="#2F2F2F"/>
</svg>
